<?xml version="1.0" encoding="UTF-8"?>
<svg width="20px" height="20px" viewBox="0 0 20 20" version="1.1" xmlns="http://www.w3.org/2000/svg" xmlns:xlink="http://www.w3.org/1999/xlink">
    <!-- Generator: Sketch 52.5 (67469) - http://www.bohemiancoding.com/sketch -->
    <title>auth-google</title>
    <desc>Created with Sketch.</desc>
    <g id="auth-google" stroke="none" stroke-width="1" fill="none" fill-rule="evenodd">
        <g id="twitter" transform="translate(2.000000, 2.000000)">
            <g id="google-icon">
                <g id="Group">
                    <path d="M15.992375,8.3406875 C15.992375,7.6698125 15.9379375,7.18025 15.820125,6.6725625 L8.159375,6.6725625 L8.159375,9.7005625 L12.6560625,9.7005625 C12.5654375,10.4530625 12.075875,11.5863125 10.9879375,12.3478125 L10.9726875,12.4491875 L13.394875,14.325625 L13.5626875,14.342375 C15.103875,12.919 15.992375,10.82475 15.992375,8.3406875" id="Shape" fill="#4285F4"></path>
                    <path d="M8.159375,16.31875 C10.362375,16.31875 12.2118125,15.5934375 13.5626875,14.342375 L10.9879375,12.3478125 C10.2989375,12.8283125 9.3741875,13.16375 8.159375,13.16375 C6.0016875,13.16375 4.170375,11.7404375 3.5175625,9.773125 L3.421875,9.78125 L0.90325,11.7304375 L0.8703125,11.822 C2.2120625,14.487375 4.968125,16.31875 8.159375,16.31875" id="Shape" fill="#34A853"></path>
                    <path d="M3.5175625,9.773125 C3.3453125,9.2654375 3.245625,8.7214375 3.245625,8.159375 C3.245625,7.59725 3.3453125,7.0533125 3.5085,6.545625 L3.5039375,6.4375 L0.95375,4.457 L0.8703125,4.4966875 C0.3173125,5.60275 0,6.8448125 0,8.159375 C0,9.4739375 0.3173125,10.7159375 0.8703125,11.822 L3.5175625,9.773125" id="Shape" fill="#FBBC05"></path>
                    <path d="M8.159375,3.1549375 C9.6915,3.1549375 10.725,3.81675 11.3143125,4.3698125 L13.6170625,2.1214375 C12.2028125,0.806875 10.362375,0 8.159375,0 C4.968125,0 2.2120625,1.8313125 0.8703125,4.4966875 L3.5085,6.545625 C4.170375,4.5783125 6.0016875,3.1549375 8.159375,3.1549375" id="Shape" fill="#EB4335"></path>
                </g>
            </g>
        </g>
    </g>
</svg>