<?xml version="1.0" encoding="UTF-8"?>
<svg width="20px" height="20px" viewBox="0 0 20 20" version="1.1" xmlns="http://www.w3.org/2000/svg" xmlns:xlink="http://www.w3.org/1999/xlink">
    <!-- Generator: Sketch 52.5 (67469) - http://www.bohemiancoding.com/sketch -->
    <title>auth-facebook</title>
    <desc>Created with Sketch.</desc>
    <g id="auth-facebook" stroke="none" stroke-width="1" fill="none" fill-rule="evenodd">
        <g id="facebook" transform="translate(2.000000, 2.000000)" fill="#FFFFFF">
            <path d="M11.0396875,16 L11.0396875,9.8039617 L13.1195,9.8039617 L13.430875,7.38928364 L11.0396875,7.38928364 L11.0396875,5.84753966 C11.0396875,5.14841739 11.233875,4.67198175 12.2364375,4.67198175 L13.515125,4.67141925 L13.515125,2.51174019 C13.293875,2.4823028 12.534875,2.41655306 11.651875,2.41655306 C9.80825,2.41655306 8.546125,3.54186116 8.546125,5.60847809 L8.546125,7.38928364 L6.461,7.38928364 L6.461,9.8039617 L8.546125,9.8039617 L8.546125,16 L0.8830625,16 C0.39525,16 0,15.6046265 0,15.1169409 L0,0.883059051 C0,0.395310956 0.39525,0 0.8830625,0 L15.1169375,0 C15.6045625,0 16,0.395310956 16,0.883059051 L16,15.1169409 C16,15.6046265 15.6045625,16 15.1169375,16 L11.0396875,16 Z" id="Combined-Shape"></path>
        </g>
    </g>
</svg>