<?xml version="1.0" encoding="UTF-8"?>
<svg width="20px" height="20px" viewBox="0 0 20 20" version="1.1" xmlns="http://www.w3.org/2000/svg" xmlns:xlink="http://www.w3.org/1999/xlink">
    <!-- Generator: Sketch 52.5 (67469) - http://www.bohemiancoding.com/sketch -->
    <title>auth-twitter</title>
    <desc>Created with Sketch.</desc>
    <g id="auth-twitter" stroke="none" stroke-width="1" fill="none" fill-rule="evenodd">
        <path d="M17.6784689,5.47480108 C17.1016017,5.72494699 16.4816659,5.89400997 15.8309914,5.97004625 C16.4951428,5.58078086 17.0051417,4.96441595 17.2453167,4.23001536 C16.6238325,4.59040267 15.9354228,4.85215589 15.2027401,4.99323796 C14.6159516,4.38197578 13.7799845,4 12.8548408,4 C11.0783605,4 9.63811375,5.40818522 9.63811375,7.14507597 C9.63811375,7.39157708 9.66661585,7.63162968 9.72144089,7.86181326 C7.04808963,7.73065628 4.67793915,6.47852487 3.09145404,4.57571129 C2.81457614,5.04022793 2.65595058,5.58050049 2.65595058,6.15688467 C2.65595058,7.24802776 3.22387141,8.21070541 4.08696427,8.77469724 C3.55964608,8.75837972 3.06369743,8.61690514 2.62997176,8.38133845 C2.62974237,8.39445976 2.62974237,8.40763714 2.62974237,8.42087059 C2.62974237,9.94473637 3.73851562,11.215933 5.21001726,11.5048259 C4.94007851,11.5767128 4.65591738,11.6151234 4.36252316,11.6151234 C4.15526617,11.6151234 3.95374402,11.5954414 3.75738323,11.558713 C4.16667849,12.8082651 5.35459248,13.7175603 6.76215069,13.7429618 C5.66129153,14.5864823 4.27432137,15.0892975 2.76732109,15.0892975 C2.50770506,15.0892975 2.25164462,15.0744378 2,15.0453915 C3.42350106,15.9377524 5.11430284,16.4583991 6.93081223,16.4583991 C12.8473281,16.4583991 16.0826933,11.6659264 16.0826933,7.50978097 C16.0826933,7.37340912 16.0795965,7.23776622 16.0734029,7.10290836 C16.7018263,6.65947552 17.2472092,6.10552092 17.6784689,5.47480108" id="Shape" fill="#FFFFFF"></path>
    </g>
</svg>