<?xml version="1.0" encoding="UTF-8"?>
<svg width="473px" height="384px" viewBox="0 0 473 384" version="1.1" xmlns="http://www.w3.org/2000/svg" xmlns:xlink="http://www.w3.org/1999/xlink">
    <!-- Generator: Sketch 52.5 (67469) - http://www.bohemiancoding.com/sketch -->
    <title>Group 3</title>
    <desc>Created with Sketch.</desc>
    <defs>
        <path d="M103.905882,137.567862 C100.710473,135.364132 88.7552367,126.769584 87.3228121,125.557532 C87.0473458,125.337159 85.6700143,124.345481 84.2926829,123.353802 C82.9153515,122.417217 80.3259684,120.378766 78.507891,118.891248 C76.6898135,117.348637 73.7698709,115.03472 72.0068867,113.767575 C68.4809182,111.178192 58.6743185,103.079484 54.2117647,99.0576758 C45.7824964,91.3997131 42.0912482,88.4246772 31.8989957,81.097274 C28.538307,78.6731707 24.6266858,75.6981349 23.1942611,74.43099 C21.8169297,73.2189383 19.0622669,71.015208 17.0789096,69.5276901 C12.7265423,66.2220947 8.9251076,63.1368723 5.50932568,60.0516499 C4.076901,58.7294118 11.2941176,53.7159254 14.2140603,54.1566714 C17.1890961,54.5423242 22.0373027,55.2585366 25.0674319,55.7543759 C30.5767575,56.5807747 45.1764706,57.6826399 65.5609756,58.784505 C75.5328551,59.2803443 80.2157819,59.6109039 96.1377331,60.9882353 C99.4984218,61.2637016 109.415208,61.6493544 118.175036,61.8146341 C136.245624,62.2002869 151.561549,63.6878049 163.847346,66.2771879 C165.94089,66.717934 169.687231,67.0484935 172.166428,67.0484935 C175.912769,67.0484935 176.959541,67.2688666 178.171593,68.2054519 C179.108178,68.9767575 179.548924,69.6929699 179.328551,70.2989957 C178.997991,71.4559541 179.82439,80.5463415 180.926255,87.9839311 C183.185079,102.528551 182.964706,101.757245 184.617504,102.638737 C185.443902,103.079484 186.876327,103.410043 187.702726,103.410043 C188.584218,103.410043 189.741176,103.740603 190.347202,104.181349 C190.953228,104.567001 192.055093,105.062841 192.826399,105.228121 C193.597704,105.3934 195.911621,106.164706 198.005165,106.936011 C200.098709,107.707317 202.302439,108.368436 202.853372,108.368436 C203.459397,108.368436 204.616356,108.698996 205.387661,109.139742 C208.307604,110.62726 211.062267,111.674032 212.053945,111.674032 C213.431277,111.674032 208.693257,122.692683 204.120516,124.125108 C199.602869,125.502439 194.754663,127.04505 193.377331,127.430703 C192,127.816356 188.914778,128.808034 186.490674,129.634433 C180.595696,131.562697 178.667432,131.78307 177.510473,130.846485 C177.014634,130.405739 175.08637,129.358967 173.268293,128.532568 C171.450215,127.651076 167.428407,125.722812 164.288092,124.180201 C160.87231,122.47231 158.5033,121.590818 158.17274,121.921377 C157.731994,122.417217 158.778766,142.856815 157.291248,144.840172 C155.307891,147.539742 107.982783,140.322525 103.905882,137.567862 Z" id="path-1"></path>
    </defs>
    <g id="Site" stroke="none" stroke-width="1" fill="none" fill-rule="evenodd">
        <g id="Discover-Copy" transform="translate(-801.000000, -114.000000)">
            <g id="Group-2" transform="translate(0.000000, 48.000000)">
                <g id="Group-3" transform="translate(801.000000, 66.000000)">
                    <path d="M84.0172166,15.9770445 C228.637016,-38.2898135 233.193415,62.9951107 326.427547,67.4892396 C389.229946,70.5164794 427.928165,95.0143725 449.560976,137.182209 C471.193786,179.350046 399.223698,209.489345 405.761836,248.195122 C412.648494,288.964132 456.296077,346.362156 412.648494,375.460545 C369.00091,404.558934 299.487519,344.449423 247.919656,353.423242 C196.351793,362.397062 72.9985653,403.28264 33.0559541,324.223816 C-6.8866571,245.164993 49.5839311,232.493544 59.5007174,196.407461 C69.4175036,160.321377 5.04523974,45.6103387 84.0172166,15.9770445 Z" id="Rectangle-2" fill="#FFFFFF"></path>
                    <g id="OX7znmNhjn" transform="translate(0.000000, 111.839311)" fill-rule="nonzero">
                        <g id="Group" transform="translate(236.500000, 80.156098) scale(-1, 1) rotate(-180.000000) translate(-236.500000, -80.156098) translate(0.000000, 0.156098)">
                            <g id="Shape">
                                <use fill="#5053AB" xlink:href="#path-1"></use>
                                <use fill-opacity="0.118546196" fill="#FFFFFF" xlink:href="#path-1"></use>
                            </g>
                            <path d="M1.42108547e-14,54.8177905 C1.42108547e-14,52.558967 11.2941176,53.7159254 14.2140603,54.1566714 C17.1890961,54.5423242 22.0373027,55.2585366 25.0674319,55.7543759 C30.5767575,56.5807747 45.1764706,57.6826399 65.5609756,58.784505 C75.5328551,59.2803443 80.2157819,59.6109039 96.1377331,60.9882353 C99.4984218,61.2637016 109.415208,61.6493544 118.175036,61.8146341 C136.245624,62.2002869 151.561549,63.6878049 163.847346,66.2771879 C165.94089,66.717934 169.687231,67.0484935 172.166428,67.0484935 C175.912769,67.0484935 176.959541,67.2688666 178.171593,68.2054519 C179.108178,68.9767575 179.548924,69.6929699 179.328551,70.2989957 C178.997991,71.4559541 179.82439,80.5463415 180.926255,87.9839311 C183.185079,102.528551 182.964706,101.757245 184.617504,102.638737 C185.443902,103.079484 186.876327,103.410043 187.702726,103.410043 C188.584218,103.410043 189.741176,103.740603 190.347202,104.181349 C190.953228,104.567001 192.055093,105.062841 192.826399,105.228121 C193.597704,105.3934 195.911621,106.164706 198.005165,106.936011 C200.098709,107.707317 202.302439,108.368436 202.853372,108.368436 C203.459397,108.368436 204.616356,108.698996 205.387661,109.139742 C208.307604,110.62726 211.062267,111.674032 212.053945,111.674032 C213.431277,111.674032 208.693257,122.692683 204.120516,124.125108 C199.602869,125.502439 1.42108547e-14,55.8094692 1.42108547e-14,54.8177905 Z" id="Shape" fill="#4F55A5"></path>
                            <path d="M1.42108547e-14,54.8177905 C1.03495586e-14,52.558967 4.40746055,51.8978479 7.82324247,52.77934 C8.72174694,53.0112121 211.318056,109.069708 220.097561,111.949498 C228.877066,114.829288 216.35122,120.26858 214.918795,120.709326 C213.541463,121.150072 208.693257,122.692683 204.120516,124.125108 C199.602869,125.502439 194.754663,127.04505 193.377331,127.430703 C192,127.816356 188.914778,128.808034 186.490674,129.634433 C180.595696,131.562697 178.667432,131.78307 177.510473,130.846485 C177.014634,130.405739 175.08637,129.358967 173.268293,128.532568 C171.450215,127.651076 167.428407,125.722812 164.288092,124.180201 C160.87231,122.47231 1.81254661e-14,56.856241 1.42108547e-14,54.8177905 Z" id="Shape" fill="#7682C8"></path>
                            <path d="M122.747776,154.095839 C117.40373,150.514778 73.7698709,115.03472 72.0068867,113.767575 C68.4809182,111.178192 58.6743185,103.079484 54.2117647,99.0576758 C45.7824964,91.3997131 19.0622669,71.015208 17.0789096,69.5276901 C12.7265423,66.2220947 1.42108547e-14,55.8094692 1.42108547e-14,54.8177905 C1.42108547e-14,52.558967 158.778766,142.856815 157.291248,144.840172 C155.307891,147.539742 153.544907,148.586514 148.476327,150.018938 C146.988809,150.459684 145.005452,151.06571 144.068867,151.341176 C136.631277,153.6 128.091822,157.676901 122.747776,154.095839 Z" id="Shape" fill="#7682C8"></path>
                            <path d="M149.908752,81.9236729 C147.429555,79.16901 147.264275,75.8083214 149.633286,76.6347202 C150.845337,77.0754663 153.159254,80.4361549 153.324534,82.0889527 C153.489813,83.9621234 151.726829,83.8519369 149.908752,81.9236729 Z" id="Shape" fill="#4F55A5"></path>
                            <path d="M140.983644,80.9870875 C138.724821,78.3426112 138.449354,74.7615495 140.542898,75.5879484 C141.75495,76.0286944 143.903587,79.5546628 143.683214,80.656528 C143.462841,81.9787661 141.975323,82.1991392 140.983644,80.9870875 Z" id="Shape" fill="#4F55A5"></path>
                            <g id="Group-2" transform="translate(209.354376, 0.000000)" fill="#E1E5F0">
                                <path d="M71.8967001,158.999139 C70.4091822,158.723673 66.4424677,158.33802 63.1368723,158.117647 C58.343759,157.787088 57.0215208,157.511621 56.5256815,156.740316 C56.0298422,155.96901 56.195122,155.473171 57.4071736,154.316212 C58.8395983,152.828694 58.8946915,152.828694 62.9164993,153.43472 C65.1202296,153.76528 69.3073171,154.206026 72.2272597,154.426399 C76.7449067,154.701865 77.5713056,154.867145 78.1773314,155.913917 C78.8384505,156.960689 78.7833572,157.181062 77.4611191,158.33802 C76.6347202,159.054232 75.6981349,159.550072 75.3124821,159.550072 C74.9268293,159.494978 73.4393113,159.274605 71.8967001,158.999139 Z M107.817504,155.96901 C107.101291,155.252798 107.431851,153.159254 108.423529,152.277762 C108.919369,151.837016 111.123099,151.010617 113.216643,150.514778 C115.36528,149.963845 117.679197,149.247633 118.450502,148.86198 C119.221808,148.476327 120.984792,147.980488 122.47231,147.815208 C124.620947,147.484648 125.116786,147.594835 125.392253,148.311047 C125.888092,149.523099 123.023242,152.387948 120.26858,153.379627 C114.814347,155.418077 108.588809,156.685222 107.817504,155.96901 Z M9.36585366,146.382783 C7.38249641,145.556385 4.57274032,144.344333 3.03012912,143.738307 C0.826398852,142.856815 0.220373027,142.305882 0.110186514,141.204017 C-0.220373027,138.449354 3.47087518,138.173888 8.26398852,140.597991 C12.01033,142.471162 14.8200861,143.628121 15.5362984,143.628121 C15.9770445,143.628121 17.1340029,143.903587 18.1256815,144.234146 C19.5030129,144.729986 19.8335725,145.115638 19.8335725,146.437877 C19.8335725,148.035581 19.8335725,148.035581 16.4177905,147.980488 C13.8835007,147.980488 11.9552367,147.539742 9.36585366,146.382783 Z M140.873458,142.691535 C140.157245,141.975323 140.487805,139.771593 141.479484,138.835007 C143.95868,136.465997 147.760115,133.490961 149.578192,132.554376 C152.057389,131.232138 153.710187,131.893257 153.710187,134.15208 C153.710187,135.419225 153.049067,136.190531 150.239311,138.228981 C148.366141,139.606313 146.32769,141.25911 145.776758,141.92023 C144.785079,143.022095 141.699857,143.517934 140.873458,142.691535 Z M170.51363,121.811191 C169.411765,120.654232 169.742324,119.552367 172.662267,114.979627 C173.929412,112.99627 175.472023,110.46198 176.022956,109.249928 C177.45538,106.440172 179.163271,105.338307 180.650789,106.164706 C182.303587,107.046198 182.138307,109.470301 180.15495,112.775897 C179.273458,114.318508 178.502152,115.695839 178.502152,115.861119 C178.502152,116.797704 175.41693,120.709326 173.929412,121.590818 C171.780775,122.913056 171.670588,122.913056 170.51363,121.811191 Z M183.515638,84.2375897 C183.185079,83.5764706 183.185079,81.7032999 183.570732,78.8935438 C183.846198,76.4694405 184.011478,72.6680057 183.846198,70.4091822 C183.625825,66.6628407 183.736011,66.1670014 184.89297,65.010043 C186.545768,63.4123386 187.647633,63.4123386 188.694405,65.0651363 C189.355524,66.0017217 189.520803,67.1035868 189.30043,68.8114778 C189.135151,70.1337159 188.859684,73.7698709 188.694405,76.9101865 C188.474032,81.8685796 188.253659,82.8602582 187.206887,83.9621234 C185.774462,85.5047346 184.231851,85.6149211 183.515638,84.2375897 Z M164.508465,74.5962697 C163.847346,74.1004304 163.571879,73.3291248 163.737159,72.2823529 L163.902439,70.6295552 L168.254806,70.6295552 C171.780775,70.6295552 172.71736,70.794835 173.213199,71.6212339 C173.709039,72.3925395 173.543759,72.8332855 172.166428,73.9351506 C170.293257,75.4777618 166.161263,75.8083214 164.508465,74.5962697 Z M145.170732,70.7397418 C142.691535,69.3073171 142.140603,67.8748924 143.628121,66.7730273 C144.950359,65.7262554 146.49297,65.7813486 148.917073,66.7730273 C151.726829,67.9299857 152.332855,69.3073171 150.735151,70.8499283 C149.192539,72.3374462 147.925395,72.2823529 145.170732,70.7397418 Z M125.612626,60.3271162 C124.565854,58.6192253 124.786227,57.1868006 126.108465,56.3053085 C126.934864,55.8645624 130.515925,57.7377331 130.846485,58.8395983 C131.397418,60.492396 130.185366,62.0901004 128.367288,62.0901004 C127.100143,62.0901004 126.439024,61.6493544 125.612626,60.3271162 Z M199.162123,59.8863702 C198.115352,58.1784792 203.239024,55.1483501 206.764993,55.4238164 C209.795122,55.6441894 204.726542,60.4373027 201.47604,60.4373027 C200.374175,60.4373027 199.382496,60.2169297 199.162123,59.8863702 Z M180.540603,48.482066 C180.32023,48.3167862 180.15495,47.4903874 180.15495,46.6639885 C180.15495,44.9560976 178.667432,40.2731707 177.565567,38.5652798 C176.573888,37.0777618 176.849354,34.543472 178.006313,33.8272597 C181.422095,31.6786227 187.206887,44.5704448 184.286944,47.7658537 C183.295265,48.8677188 181.256815,49.2533716 180.540603,48.482066 Z M114.979627,45.1764706 C114.759254,45.0111908 114.593974,44.405165 114.593974,43.9093257 C114.593974,43.4134864 114.153228,42.5870875 113.547202,42.0361549 C112.83099,41.3750359 112.445337,39.9977044 112.224964,37.1328551 C111.839311,32.7253945 112.169871,30.686944 113.216643,30.686944 C114.263415,30.686944 115.750933,33.1661406 115.089813,33.8272597 C114.759254,34.1578192 114.86944,34.9291248 115.420373,35.9758967 C115.861119,36.8573888 116.246772,38.0143472 116.246772,38.5101865 C116.246772,39.0060258 116.632425,40.107891 117.183357,40.9893831 C118.285222,42.9727403 117.789383,45.5621234 116.301865,45.5621234 C115.750933,45.5621234 115.144907,45.3968436 114.979627,45.1764706 Z M230.510187,39.2814921 C229.518508,38.5101865 229.518508,38.4 231.226399,36.6370158 C234.476901,33.2763271 239.655667,31.2929699 239.655667,33.3314204 C239.655667,34.323099 237.396844,36.692109 234.862554,38.3449067 C231.887518,40.328264 231.942611,40.328264 230.510187,39.2814921 Z M112.775897,23.7451937 C112.114778,23.0289813 112.335151,19.0622669 113.161549,17.5747489 C113.602296,16.7483501 114.043042,15.7015782 114.208321,15.2608321 C114.373601,14.7649928 115.089813,14.0487805 115.861119,13.6631277 C117.018077,13.0571019 117.458824,13.0020086 118.175036,13.6080344 C119.442181,14.6548063 119.166714,16.4177905 117.183357,20.2743185 C115.475466,23.5799139 113.877762,24.8470588 112.775897,23.7451937 Z M167.703874,19.7784792 C167.373314,19.5581062 166.657102,18.5664275 166.106169,17.6298422 C165.500143,16.6381636 164.894118,15.8117647 164.673745,15.8117647 C163.847346,15.8117647 161.974175,12.0654232 162.304735,11.1839311 C163.4066,8.37417504 166.436729,9.20057389 169.632138,13.2774749 C171.615495,15.8117647 171.725681,16.8034433 170.18307,18.7868006 C168.971019,20.3294118 168.640459,20.4395983 167.703874,19.7784792 Z M257.285509,14.1038737 C257.285509,12.8367288 260.866571,9.20057389 262.133716,9.20057389 C262.629555,9.20057389 262.794835,9.75150646 262.684648,10.9635581 C262.409182,13.8284075 257.285509,16.8034433 257.285509,14.1038737 Z M133.656241,4.35236729 C133.050215,3.41578192 133.876614,0.991678623 134.868293,0.716212339 C138.228981,-0.220373027 140.322525,-0.16527977 141.58967,0.826398852 C142.636442,1.70789096 142.746628,2.0384505 142.195696,3.03012912 C141.810043,3.74634146 141.038737,4.24218077 140.267432,4.24218077 C139.55122,4.24218077 137.898422,4.40746055 136.52109,4.57274032 C134.978479,4.79311334 133.876614,4.68292683 133.656241,4.35236729 Z" id="Shape"></path>
                            </g>
                        </g>
                    </g>
                </g>
            </g>
        </g>
    </g>
</svg>